<svg preserveAspectRatio="none" width="100%" height="100%" overflow="visible" style="display: block;" viewBox="0 0 106.977 162" fill="none" xmlns="http://www.w3.org/2000/svg">
<g id="Vector">
<path fill-rule="evenodd" clip-rule="evenodd" d="M23.3705 1.5103C21.2388 3.46688 18.6774 8.60505 17.9082 12.4682C17.6006 14.0142 17.3486 16.7377 17.3486 18.5203C17.3486 21.3529 17.2515 21.8489 16.5772 22.4561C16.1527 22.8383 15.4916 23.7635 15.1073 24.5126C14.6934 25.3204 14.0759 25.9411 13.5898 26.0381C8.31728 27.0913 3.38938 28.2358 2.45135 28.6252C0.622526 29.3842 -0.0583836 30.7489 0.00388354 33.5296C0.0701797 36.503 1.17267 39.507 3.07841 41.9074C4.14501 43.2509 5.21894 44.0561 7.33456 45.0977L10.1428 46.1265L17.2739 46.6108C23.0971 46.7086 24.3063 45.0748 25.05 44.0698C25.8853 42.9412 26.6519 41.1373 26.0096 39.9402C25.771 39.7252 25.4437 39.9173 24.8647 40.2571C23.7687 40.9004 21.7712 42.0728 17.7683 42.0131C14.0122 41.957 10.5805 41.8341 10.1428 41.7396C9.09928 41.5146 7.09281 39.821 7.09281 39.1649C7.09281 38.8819 7.38584 38.6503 7.74369 38.6503C8.69528 38.6503 9.94501 37.6704 10.5985 36.4122C11.4259 34.8188 10.6468 33.7663 8.20886 33.1839C4.82263 32.375 5.19073 32.1967 13.5027 30.619C20.3627 29.3167 20.8271 29.0968 22.6259 26.3036C24.5027 23.389 26.4187 21.967 28.901 21.6479L30.7177 21.4142L29.3779 22.4649C25.2741 25.6833 24.1998 30.9892 27.1198 33.6205C27.7003 34.1434 28.1589 34.1919 30.028 33.929C34.3065 33.3269 38.3337 34.7798 41.4342 38.0438C44.5439 41.318 45.7534 44.4755 45.6039 48.9321C45.4453 53.656 43.4788 56.6359 37.0968 61.8193C31.6023 66.2824 29.4698 68.7393 27.5263 72.8443C25.4858 77.155 25.5865 79.8606 27.7875 79.8606C28.8006 79.8606 29.0456 79.5725 31.4026 75.6098C33.6538 71.8253 34.8409 70.7842 36.2012 71.4016C37.5044 71.9927 37.3949 73.306 35.8767 75.2863C31.9502 80.4077 31.7 88.9298 35.2669 96.0286C36.8928 99.2641 37.5814 99.6409 41.8686 99.6409C44.1952 99.6409 45.7567 99.4129 47.7005 98.7897L50.3546 97.9385L51.7662 95.0082C53.6375 91.1227 54.0631 89.4185 54.1177 85.59C54.1664 82.1877 54.41 81.7012 56.0696 81.6896C57.3721 81.6808 57.7819 82.9616 57.7599 86.9722C57.7409 90.4524 57.2102 92.8029 55.6293 96.405C55.352 97.037 55.4703 97.0669 57.3091 96.8331C60.4393 96.4345 64.9097 95.3244 69.9203 93.7011C72.4671 92.8762 74.5922 92.2555 74.6431 92.3218C74.6937 92.3882 75.2365 93.1811 75.8485 94.0837C78.8267 98.4739 83.0294 101.035 87.6976 101.304C90.4615 101.463 94.1701 100.744 95.2828 99.8323C96.5018 98.8342 95.8784 100.21 93.172 104.493C91.5486 107.062 90.0392 109.382 89.818 109.647C89.3693 110.185 81.8134 110.364 81.8134 109.836C81.8134 109.356 83.596 107.096 84.611 106.291C85.6897 105.434 85.4395 105.061 83.3107 104.347C80.7325 103.481 77.4034 101.298 75.1394 98.9881C72.8901 96.6931 72.7575 96.6165 71.7206 97.0093C68.2498 98.3243 59.6474 100.262 51.5955 101.541C46.0303 102.426 45.0281 103.19 41.8148 109.002L41.1907 110.13L41.1793 110.132C38.7145 110.476 35.8694 110.874 31.1383 110.075C31.1383 109.376 32.9677 106.938 33.7955 106.677C34.3871 106.49 34.4226 106.256 34.1157 104.56C33.6347 101.903 32.5436 98.7933 31.0708 95.8812C30.0529 93.8685 29.2497 92.9305 26.7883 90.8798C22.9925 87.7183 21.0678 85.6399 19.0276 82.4999C15.6893 77.3614 14.2407 72.1682 14.2733 65.4553C14.2964 60.6924 14.7638 58.3988 16.7164 53.4682C17.765 50.8198 17.8112 50.5247 17.3145 49.6436C16.5633 48.3107 15.0912 47.8486 13.9557 48.5893C12.784 49.3537 10.5875 53.8409 9.61719 57.4532C8.55243 61.4166 8.45317 69.2276 9.41062 73.6609C10.7684 79.9456 14.3469 86.3288 19.2485 91.2092C22.2292 94.1774 23.0101 95.983 23.6035 101.283C24.0577 105.338 23.9108 105.961 22.4314 106.255C20.7386 106.592 19.5167 110.077 18.7311 112.318C18.5175 112.927 18.974 113.587 19.6197 113.584C20.3701 113.582 20.7613 113.576 21.1854 113.57C22.6929 113.55 24.6165 113.524 44.575 113.584C45.0888 113.586 45.584 113.323 45.8355 112.875C46.184 112.255 46.4816 111.646 46.7665 111.064C47.9436 108.657 48.9031 106.696 52.3328 106.153C57.5248 105.332 62.493 104.297 66.4297 103.215C68.545 102.634 70.3211 102.147 70.3764 102.133C72.4811 104.374 68.8997 106.29 67.395 107.096C67.2699 107.163 67.1591 107.222 67.0672 107.273C66.1138 107.803 65.6825 111.25 65.4854 112.825C65.4381 113.203 65.7641 113.587 66.1449 113.584C66.644 113.58 66.9842 113.574 67.2747 113.568C67.9062 113.556 68.3034 113.548 69.5881 113.587C73.7115 113.708 81.0164 113.658 86.887 113.618C87.8758 113.612 88.8239 113.605 89.7093 113.6C91.9044 113.587 94.0131 112.635 95.3178 110.869C96.1393 109.758 96.9126 108.619 97.6768 107.395C104.689 96.1664 112.836 78.6499 100.905 67.5552C95.9315 62.9309 89.347 62.1818 78.1268 60.925C68.9508 59.897 65.4474 58.5352 61.2641 54.3697C57.7281 50.8493 56.3545 47.8325 53.9913 38.3979C52.7284 33.3575 52.7064 33.1821 53.3353 33.1744C54.2052 33.1639 58.695 29.5654 60.1939 27.6774C64.4035 22.3748 66.5876 15.5196 65.7426 10.2615C65.2869 7.42527 64.1845 6.4519 61.2198 6.26846C56.2333 5.95956 48.6272 9.87309 41.995 16.1597L39.7197 18.3161L37.4165 17.7275C36.1496 17.4036 34.6196 17.0966 34.0164 17.0451L32.9198 16.9511L32.8088 14.2159C32.6634 10.6389 31.8513 7.35451 30.3126 4.12078C28.1732 -0.37443 26.2235 -1.10783 23.3705 1.5103ZM76.9137 107.939C75.9387 109.801 75.6211 110.125 74.7625 110.127C74.2087 110.129 73.7553 110.033 73.7553 109.915C73.7553 109.449 77.1686 105.754 77.599 105.754C77.8898 105.754 77.6389 106.553 76.9137 107.939ZM25.2606 110.127C26.1191 110.125 27.122 108.539 28.097 106.677C28.8223 105.291 28.3879 104.411 28.097 104.411C27.6667 104.411 24.2533 109.449 24.2533 109.915C24.2533 110.033 24.7068 110.129 25.2606 110.127Z" fill="var(--fill-0, #FF5C00)"/>
<path fill-rule="evenodd" clip-rule="evenodd" d="M99.0284 124.854C98.2784 125.188 97.4123 126.096 97.1296 126.844C96.5885 128.274 97.1467 130.366 98.286 131.176C99.5516 132.076 101.926 132.076 103.192 131.176C105.178 129.763 104.925 126.176 102.759 125.032C101.75 124.499 100.011 124.416 99.0284 124.854ZM10.6889 126.903C6.1959 127.562 3.34489 129.113 1.80609 131.737C-0.515284 135.695 -0.615295 143.545 1.60104 147.828C2.17011 148.927 3.89726 150.622 5.09417 151.256C6.89215 152.209 8.81046 152.689 11.5945 152.884C17.4062 153.291 20.9106 152.078 23.4012 148.797C24.364 147.527 25.4792 145.489 25.4792 144.998C25.4792 144.694 25.1965 144.572 21.4991 143.289L19.2297 142.501L18.8508 143.235C17.8607 145.154 16.2183 146.103 13.6428 146.243C9.24492 146.482 7.21975 144.774 7.01309 140.652C6.83882 137.18 7.61335 135.292 9.64013 134.25C11.5291 133.279 15.1421 133.344 16.8264 134.381C17.5854 134.847 18.8307 136.346 19.1102 137.13C19.1528 137.249 20.5427 136.876 22.4135 136.244L25.6435 135.153L25.4475 134.636C24.7379 132.762 23.8708 131.39 22.5689 130.082C20.262 127.764 18.1783 126.994 13.9086 126.882C12.4698 126.845 11.021 126.854 10.6889 126.903ZM36.245 133.728C36.0236 133.779 35.3445 133.921 34.7358 134.044C30.1952 134.96 27.4336 138.956 27.7481 144.154C28.0234 148.703 30.4677 151.705 34.7171 152.714C36.1283 153.048 39.1632 153.055 40.5714 152.727C45.2121 151.644 48.0605 147.696 47.7587 142.764C47.4804 138.215 45.1469 135.186 41.0745 134.087C40.0128 133.801 36.927 133.571 36.245 133.728ZM76.8045 133.929C73.2572 134.697 70.5658 137.269 69.6556 140.76C68.7507 144.231 69.8353 148.25 72.2788 150.482C74.0991 152.144 76.2424 152.95 78.9055 152.974C80.7041 152.989 82.0638 152.528 83.1029 151.549L83.6784 151.007L83.5937 152.917C83.5362 154.212 83.3953 155.042 83.1558 155.496C82.5508 156.643 82.0392 156.737 76.3966 156.737H71.3594V162L77.2454 161.917C82.5991 161.842 83.2504 161.796 84.4477 161.401C87.0549 160.543 88.5059 159.155 89.3221 156.738C89.7511 155.467 89.7654 155.125 89.8278 144.724L89.892 134.018H85.0933L84.9675 134.646C84.8983 134.992 84.8417 135.5 84.8417 135.775C84.8417 136.273 84.8359 136.271 84.0459 135.558C82.1213 133.821 79.7573 133.289 76.8045 133.929ZM50.8341 139.245H53.4501V147.689H50.8341V152.716H62.7066V147.689H59.8419L59.9232 145.126C59.9944 142.883 60.0646 142.456 60.4856 141.711C61.4296 140.039 63.2565 139.245 66.1595 139.245H67.9385V134.018L66.2784 134.02C63.1388 134.022 61.0084 134.589 59.4485 135.837C59.0398 136.163 58.655 136.431 58.5933 136.431C58.5313 136.431 58.4808 135.888 58.4808 135.224V134.018H50.8341V139.245ZM95.1044 139.245H97.7204V147.689H95.1044V152.716H106.977V147.689H104.16V134.018H95.1044V139.245ZM81.7728 139.844C82.9301 140.494 83.5028 141.472 83.5978 142.961C83.7889 145.961 81.4575 147.971 78.5849 147.283C75.6856 146.588 74.5936 142.761 76.6564 140.525C77.8678 139.212 80.1139 138.913 81.7728 139.844ZM39.8665 139.908C41.5784 140.877 42.2004 143.592 41.1499 145.51C40.0392 147.538 36.5911 147.929 34.7825 146.232C33.7852 145.295 33.4956 142.674 34.2331 141.258C34.8992 139.98 35.8874 139.476 37.7542 139.462C38.7543 139.455 39.2515 139.56 39.8665 139.908Z" fill="var(--fill-0, #FF5C00)"/>
</g>
</svg>
