<svg width="324" height="82" viewBox="0 0 324 82" fill="none" xmlns="http://www.w3.org/2000/svg">
<path d="M90.2391 3.24756C91.6979 2.8795 93.3589 2.81564 94.8716 2.78988C100.292 2.70015 105.712 2.76473 111.131 2.84151C118.24 2.94222 125.352 2.62809 132.461 2.7617C133.105 2.77379 134.017 2.87718 134.602 3.10695C135.831 4.13136 139.538 13.1483 139.697 14.9234C139.713 15.117 139.728 15.3108 139.74 15.5047C138.181 14.1698 136.947 12.6294 135.519 11.282C132.013 7.97555 127.979 4.29282 122.919 3.85382C118.533 3.47324 113.603 3.68426 109.169 3.64617C108.533 3.64073 107.7 3.85565 107.227 4.30194C106.44 6.00962 106.442 29.9346 107.135 30.6709C108.147 31.7464 117.496 30.1674 119.059 29.5618C119.19 29.5334 119.607 29.307 119.676 29.2614L119.771 29.1858C120.601 28.8605 121.009 28.7109 121.771 28.2118C124.969 25.4632 125.162 23.7083 126.423 19.9275C126.803 19.5646 126.895 19.3311 127.322 19.3323C127.875 21.3125 127.624 40.7312 127.403 43.5413C126.883 43.4944 126.433 43.5481 126.071 43.2769C125.079 39.4962 124.113 35.8248 120.404 33.5751C116.686 31.3196 111.747 31.2848 107.525 31.6662C107.406 31.6769 107.165 31.8201 107.062 31.8923C106.294 33.4067 106.641 49.7879 106.85 52.3744C106.969 53.8431 107.218 55.3297 107.675 56.7329C107.989 57.6971 108.389 58.3454 109.309 58.816C112.466 60.4306 125.882 59.971 129.275 58.8473C133.409 57.4786 137.148 53.5903 139.618 50.1371C140.542 48.8455 141.291 47.3906 142.285 46.1598C142.533 49.9953 140.456 56.9211 139.058 60.5656C138.847 61.1149 133.173 60.7598 132.289 60.7522L116.775 60.6782C114.419 60.6825 110.72 61.1593 108.684 61.1469C105.859 61.1298 93.0577 61.4083 91.3659 60.5275L91.3772 60.3101C92.509 59.2944 95.6474 58.6209 96.2822 57.6179C98.908 53.4691 98.1851 46.1461 98.1894 41.5315L98.2362 25.3071L98.245 15.2781C98.2447 11.9629 98.6988 7.6993 96.3609 5.06132C94.7176 3.20696 92.4098 3.71307 90.2391 3.24756Z" fill="#1d1d1d"/>
<path d="M172.958 34.8687C172.418 32.695 172.555 30.8908 174.763 29.4693C179.579 26.3675 186.918 22.1242 192.797 22.0565C194.959 22.0317 197.268 24.4379 198.484 25.985C198.771 28.5144 198.664 31.7817 198.664 34.3663C198.744 39.7344 198.528 45.1313 198.616 50.494C198.697 55.5232 200.441 56.1388 204.746 56.0246C208.709 52.9945 205.042 51.4291 210.571 47.6727C211.213 47.941 211.188 47.8161 211.514 48.3274L211.519 48.8227C210.798 55.4102 220.329 54.2519 224.424 54.3184C226.503 54.3525 228.999 54.4296 231.054 54.3108C236.582 54.3415 241.17 55.4598 243.975 60.7869C244.516 62.0342 244.673 64.4064 244.913 64.7192C244.815 66.1556 244.547 68.219 244.313 69.6611C242.632 73.0139 240.786 75.5017 237.511 77.5212C236.169 78.3496 235.127 78.6154 233.765 79.2103C227.708 81.8539 221.335 81.6447 215.015 80.2352C211.78 79.3655 208.349 77.998 206.631 74.963C203.683 69.7615 207.552 66.0673 211.861 63.5758C211.933 64.1117 211.956 64.5177 212.191 65.0099C211.19 66.1921 211.541 69.0177 211.632 70.5291C211.775 72.93 213.757 74.9084 215.55 76.2961C221.939 81.2429 233.142 81.1302 238.214 74.2572C240.648 71.3225 240.483 64.6444 236.962 62.5566C231.929 59.5725 222.887 60.5656 217.386 61.374C216.16 61.26 215.288 61.219 214.112 60.8397C212.193 60.2425 210.074 59.636 208.605 58.1615C207.97 57.5237 207.689 56.8687 206.918 56.243C205.847 56.403 204.181 59.1302 203.188 59.8845C201.797 60.9432 199.905 61.304 198.193 61.0688C196.445 60.829 194.338 59.7557 193.43 58.1857C190.296 52.7714 193.911 30.9195 191.426 27.6521C190.482 26.4102 189.041 25.8123 187.53 25.612C185.113 25.2917 182.823 25.9168 180.898 27.41C178.206 29.4957 178.758 31.8942 178.368 34.8972C175.885 36.2803 175.347 37.4986 172.958 34.8687Z" fill="#1d1d1d"/>
<path d="M42.1189 32.5345C45.9881 32.465 50.0049 32.6277 53.9001 32.4945C55.3242 32.4459 58.7867 32.6377 60.0556 32.2756L59.8968 32.2444C62.2744 32.0112 65.0582 32.0091 67.455 32.1026C67.2004 32.2956 67.1474 32.3393 66.8478 32.454C67.9789 32.5311 73.2943 32.7586 74.009 32.9298L74.2158 33.209C73.695 33.6861 71.828 33.5976 71.023 33.7216C68.508 34.1086 66.0861 34.8986 63.6201 35.4524L50.4704 38.2848C48.9741 38.6153 47.2743 38.8199 45.7578 39.118C45.462 39.1762 45.4492 39.3487 45.4109 39.5496C46.1108 41.0826 48.4288 43.0014 49.6373 44.3009C53.045 47.9651 56.6473 50.9529 59.8179 54.844C59.7928 55.6692 59.9295 55.7556 59.5252 56.3119C56.776 54.4819 53.9505 52.8084 51.1566 51.0451C48.8202 49.5707 46.4566 47.8652 44.0801 46.4937C41.1355 49.8898 41.6782 62.939 38.3014 66.0312C37.8306 65.4639 38.0927 45.9167 37.8468 43.0597L35.9803 43.359C32.3299 46.4991 28.8038 48.3899 24.7353 50.9252C21.2182 53.1169 17.6345 55.5129 13.8858 57.2892C16.5195 53.8017 19.3996 51.0404 22.4941 47.9752L31.0821 39.5047C33.3038 37.3536 35.2691 35.0268 37.6517 32.7654C37.98 32.8292 41.4138 32.5467 42.1189 32.5345Z" fill="#1d1d1d"/>
<path d="M31.9137 18.0521C32.9044 16.3265 32.781 15.33 33.2824 13.5187C34.2759 9.9297 34.7167 6.1103 35.8525 2.58482C36.0595 1.94245 36.8957 0.648061 37.2742 0C38.4284 6.8552 37.2261 14.325 37.7701 21.2662C37.8078 21.7467 37.8282 21.8731 38.1917 22.1487C38.646 22.0666 39.0879 21.7856 39.4766 21.5377L55.8056 10.9069C56.7451 10.296 59.2971 8.34301 60.2239 8.09615C60.5777 8.57234 60.519 8.36015 60.4661 8.94307C55.9797 14.21 50.7587 19.1029 45.9186 24.0708C43.7061 26.3419 40.3455 30.0176 37.9463 31.9492C34.8346 32.1346 6.593 32.5072 5.82044 31.6743C5.65239 31.493 5.69502 31.3475 5.42489 31.1552C6.56924 30.8165 6.85414 30.7155 7.88054 30.0822C9.41808 30.1853 10.6053 29.4019 11.9765 29.0769C12.802 28.8812 14.2758 28.9634 15.1838 28.7915C16.9697 28.4532 19.472 27.416 21.1737 27.1179C23.8884 26.6422 27.9557 26.3673 30.4997 25.1431C29.3307 23.247 25.2254 19.4274 23.524 17.6315C20.7603 14.714 17.5036 12.2633 15.0774 8.91492C15.3766 8.57698 15.9553 8.56589 16.4258 8.49768C17.869 9.67224 20.9693 11.2885 22.711 12.4253C24.8761 13.8383 29.6269 17.3899 31.9137 18.0521Z" fill="#1d1d1d"/>
<path d="M313.853 59.5158C314.659 58.1739 314.675 57.2697 314.677 55.7324C314.68 50.9283 314.709 46.1799 314.683 41.3683C314.657 36.3576 315.263 30.4878 310.174 27.5658C308.521 26.6162 306.998 26.4631 305.189 26.9111C303.468 27.2285 301.2 29.2008 300.157 28.9458L300.093 28.6798C301.801 26.1801 306.59 22.7304 309.616 22.1486C310.605 21.9581 312.335 22.0451 313.584 21.8622C315.153 22.6905 316.588 23.3885 317.832 24.686C321.868 28.893 321.468 34.9854 321.456 40.3068L321.413 52.2448C321.409 53.849 321.416 55.4447 321.544 57.039C321.617 57.9458 321.207 58.9004 322.109 59.3971C322.535 59.6318 323.559 59.9495 323.777 60.3222C322.763 61.1471 317.646 61.2087 316.196 61.1901C314.138 60.6749 314.225 61.591 312.298 59.9552C312.735 59.9797 313.54 59.8413 313.853 59.5158Z" fill="#1d1d1d"/>
<path d="M145.292 26.2232C147.241 24.8991 152.925 23.0701 155.45 22.1151C155.483 24.7155 155.683 27.6787 155.811 30.2939C155.848 31.0424 156.194 30.752 156.585 31.0696C156.506 32.4472 155.814 34.2019 155.814 35.4277C155.815 42.6433 155.648 49.8953 155.897 57.1032C155.953 58.7442 156.882 59.0666 158.193 59.6821L158.779 60.0432C157.689 61.4674 151.763 60.7815 149.881 61.0546C149.292 61.0476 147.293 60.7264 146.798 60.4059C146.811 60.3727 148.772 58.7657 149.124 58.3958C149.305 52.6885 149.092 46.5512 149.175 40.7963C149.213 38.1898 149.33 31.3536 149.004 28.9858C148.138 28.0915 146.369 26.972 145.292 26.2232Z" fill="#1d1d1d"/>
<path d="M297.184 22.054C297.448 22.0896 297.634 22.0576 297.804 22.2875C298.604 23.3749 298.028 29.6687 298.748 29.7076C298.836 29.7124 298.936 29.6812 299.021 29.659C298.923 30.2882 298.324 31.0989 298.344 31.5482C298.506 35.2103 298.05 57.6122 298.7 59.169C299.077 59.5252 299.17 59.5946 299.634 59.8246C299.37 60.49 298.949 60.5751 298.37 60.9952C297.808 61.0323 296.126 61.1087 295.663 61.2254C294.337 61.3858 289.361 60.9347 288.246 60.3557C290.077 59.185 289.893 60.3261 291.86 57.8873C291.796 51.7231 291.778 45.5586 291.807 39.3942C291.809 36.6666 292.005 31.1921 291.486 28.7627C290.186 27.2998 288.631 26.8938 288.03 26.1009C288.108 25.6278 288.171 25.7075 288.631 25.3585C290.715 24.3829 295.65 23.2321 297.184 22.054Z" fill="#1d1d1d"/>
<path d="M269.661 22.4234C274.531 23.6511 279.069 26.0495 281.719 30.4928C284.595 35.2161 285.449 40.8998 284.085 46.2599C282.295 53.2676 277.692 58.6436 270.563 60.4024L270.511 60.4152C269.742 60.3881 269.298 60.5292 268.953 59.8135C279.584 55.6668 280.742 27.7566 268.995 23.701C268.518 23.452 268.565 23.7721 268.216 23.2945L268.318 22.9271C268.867 22.5468 269 22.5183 269.661 22.4234Z" fill="#1d1d1d"/>
<path d="M260.958 60.3997C259.849 60.4349 255.189 58.0959 254.021 57.1415C250.546 54.4712 247.739 49.603 247.096 45.2803C247.289 43.1439 246.707 39.3177 247.072 37.3502C248.411 30.1334 255.28 23.2954 262.289 22.6126C262.922 22.7882 262.796 22.6647 263.222 23.1049C262.892 23.7366 262.354 23.6384 261.805 23.9318C258.715 25.9147 255.239 31.5363 254.74 35.1073C253.697 42.5936 253.545 53.6048 260.305 58.5201C260.927 58.9798 261.097 58.8075 261.653 59.5383C262.233 60.1556 263.509 59.8904 264.231 60.2095C263.407 60.3887 261.865 60.3053 260.958 60.3997Z" fill="#1d1d1d"/>
<path d="M227.437 22.2508C228.457 22.4452 229.73 22.6134 230.668 22.9366C233.616 23.962 235.976 25.5323 239.255 24.8759C242.093 24.3079 244.426 21.218 246.712 24.6145C248.537 27.3276 246.658 27.674 246.106 29.4786C245.364 29.4817 244.77 29.3848 244.078 29.3428C242.418 29.2422 237.355 24.9319 236.469 25.8037C236.4 26.929 237.71 28.4395 238.138 29.5494C240.48 35.6247 237.561 42.8513 231.191 44.8865C230.623 45.068 230.262 45.2635 229.635 45.3176C228.76 45.2224 227.73 45.6389 227.193 44.8922L227.416 44.3506C229.185 43.479 231.075 41.0729 231.666 39.2548C233.46 33.7304 233.18 26.0479 226.814 23.745C226.352 23.3862 226.308 23.2969 226.355 22.7299C226.81 22.3039 226.773 22.4112 227.437 22.2508Z" fill="#1d1d1d"/>
<path d="M190.976 38.7969L191.381 38.8755C191.201 39.7387 184.507 43.1468 182.983 44.4553C179.882 47.1177 177.969 50.6137 180.669 54.5657C182.251 56.8839 185.727 55.8789 188.278 56.0554C189.05 55.5494 189.606 55.1547 190.477 54.8108L190.493 55.0852C189.611 56.8845 187.343 58.5929 185.638 59.5934C182.016 62.3809 174.222 60.7532 173.339 55.8159C172.766 52.6128 173.203 49.6941 175.95 47.7933C179.825 45.1108 186.559 40.0825 190.976 38.7969Z" fill="#1d1d1d"/>
<path d="M215.425 44.8684C214.332 44.1311 213.3 43.4239 212.282 42.592C207.94 39.0447 207.689 31.2842 211.449 27.2453C213.566 24.9733 217.544 22.7921 220.726 22.6145C221.246 22.8718 221.38 22.8245 221.599 23.2733C221.327 23.62 221.168 23.6368 220.736 23.7624C218.697 24.9533 217.116 25.8473 216.183 28.2378C214.739 31.9354 214.578 37.5139 216.561 41.0236C217.288 42.3112 218.94 44.1863 220.367 44.5526C220.631 44.6184 220.896 44.6742 221.163 44.7198L221.39 45.1722C220.896 46.425 217.712 45.8508 216.656 45.4735C216.261 45.3322 215.83 45.0048 215.425 44.8684Z" fill="#1d1d1d"/>
<path d="M167.467 22.1062C171.843 22.783 172.061 25.1958 171.378 29.0329C171.315 29.3802 168.853 30.1269 168.448 30.2672C165.198 29.6479 165.389 28.0255 162.647 27.1688C160.511 27.1837 159.343 28.7114 157.772 30.1885C158.392 27.0975 162.943 22.3423 166.292 22.1143C166.642 22.0905 167.107 22.1032 167.467 22.1062Z" fill="#1d1d1d"/>
<path d="M37.6517 32.7654C36.5491 32.0877 4.42354 32.6897 0.361601 32.4772L0.254256 32.3393L0 32.3861C0.883717 32.1358 1.77045 31.9872 2.6627 31.7134C3.90074 31.3338 6.72462 30.2011 7.88054 30.0822C6.85414 30.7155 6.56924 30.8165 5.42489 31.1552C5.69502 31.3475 5.65239 31.493 5.82044 31.6743C6.593 32.5072 34.8346 32.1346 37.9463 31.9492C39.551 32.1271 40.5649 32.0469 42.1189 32.5345C41.4138 32.5467 37.98 32.8292 37.6517 32.7654Z" fill="#1d1d1d"/>
<path d="M227.416 44.3506L227.193 44.8922C227.73 45.6389 228.76 45.2224 229.635 45.3176C227.806 45.6536 226.347 46.3923 224.632 46.6001C220.484 47.1032 214.034 44.2034 211.519 48.8227L211.514 48.3274C211.188 47.8161 211.213 47.941 210.571 47.6727C213.372 45.5839 215.056 46.3723 215.977 45.8162L215.995 45.4865L215.425 44.8684C215.83 45.0048 216.261 45.3322 216.656 45.4735C217.712 45.8508 220.896 46.425 221.39 45.1722L221.163 44.7198C223.22 44.6905 225.486 45.2671 227.416 44.3506Z" fill="#1d1d1d"/>
<path d="M262.289 22.6126C262.715 22.4494 262.75 21.8444 263.092 21.8075C265.298 21.5695 267.726 21.502 269.661 22.4234C269 22.5183 268.867 22.5468 268.318 22.9271L268.216 23.2945C268.565 23.7721 268.518 23.452 268.995 23.701C268.085 23.8497 266.598 23.6787 265.604 23.6761C264.235 23.6725 263.169 23.7798 261.805 23.9318C262.354 23.6384 262.892 23.7366 263.222 23.1049C262.796 22.6647 262.922 22.7882 262.289 22.6126Z" fill="#1d1d1d"/>
<path d="M261.653 59.5383C263.778 59.861 267.752 59.5904 268.953 59.8135C269.298 60.5292 269.742 60.3881 270.511 60.4152C269.983 60.497 269.562 60.5391 269.097 60.8108C267.633 61.6672 265.096 61.8331 263.497 61.4156L263.358 60.9466C262.893 60.5934 261.599 60.4925 260.958 60.3997C261.865 60.3053 263.407 60.3887 264.231 60.2095C263.509 59.8904 262.233 60.1556 261.653 59.5383Z" fill="#1d1d1d"/>
<path d="M220.726 22.6145C220.737 22.5766 220.75 22.5389 220.763 22.5014C220.818 22.347 220.94 21.9615 221.058 21.9262C222.402 21.5231 226.244 21.7662 227.437 22.2508C226.773 22.4112 226.81 22.3039 226.355 22.7299C226.308 23.2969 226.352 23.3862 226.814 23.745C223.359 23.1181 223.768 23.6984 220.736 23.7624C221.168 23.6368 221.327 23.62 221.599 23.2733C221.38 22.8245 221.246 22.8718 220.726 22.6145Z" fill="#1d1d1d"/>
<path d="M158.193 59.6821C159.251 59.7328 160.285 59.6675 161.226 60.086L161.272 60.3092C159.66 61.2098 151.858 61.4198 149.881 61.0546C151.763 60.7815 157.689 61.4674 158.779 60.0432L158.193 59.6821Z" fill="#1d1d1d"/>
<path d="M309.239 59.9915C310.96 59.949 312.39 59.5596 313.853 59.5158C313.54 59.8413 312.735 59.9797 312.298 59.9552C314.225 61.591 314.138 60.6749 316.196 61.1901C314.784 61.272 313.119 61.3143 311.616 61.3956C311.746 61.1519 311.785 61.1019 311.751 60.8145C310.916 60.4785 310.099 60.2473 309.239 59.9915Z" fill="#1d1d1d"/>
<path d="M299.634 59.8246C300.336 59.7151 300.763 59.6415 301.327 60.052C301.264 61.654 296.79 61.3198 295.663 61.2254C296.126 61.1087 297.808 61.0323 298.37 60.9952C298.949 60.5751 299.37 60.49 299.634 59.8246Z" fill="#1d1d1d"/>
<path d="M214.502 61.2333C214.639 62.0749 214.701 61.9774 215.543 62.0812C214.621 62.2497 213.245 63.3637 212.586 64.0451C212.477 64.1581 212.278 64.7907 212.191 65.0099C211.956 64.5177 211.933 64.1117 211.861 63.5758C212.738 62.8997 213.878 62.1114 214.502 61.2333Z" fill="#1d1d1d"/>
<path d="M59.8179 54.844C59.9821 55.057 60.2222 55.3185 60.2647 55.5696C60.8253 57.0718 61.5473 56.5711 61.6584 57.3959L61.4921 57.6166C60.6541 57.184 60.2613 56.8746 59.5252 56.3119C59.9295 55.7556 59.7928 55.6692 59.8179 54.844Z" fill="#1d1d1d"/>
<path d="M214.112 60.8397C215.288 61.219 216.16 61.26 217.386 61.374C216.797 61.5686 216.073 61.781 215.543 62.0812C214.701 61.9774 214.639 62.0749 214.502 61.2333L214.112 60.8397Z" fill="#1d1d1d"/>
<path d="M60.2647 55.5696C61.2057 56.4712 62.0028 57.0914 62.8395 58.1065L62.8134 58.2839C62.197 58.1854 61.9881 57.9865 61.4921 57.6166L61.6584 57.3959C61.5473 56.5711 60.8253 57.0718 60.2647 55.5696Z" fill="#1d1d1d"/>
<path d="M15.0774 8.91492C14.6556 8.58954 14.2776 8.30087 14.15 7.80872C14.5144 7.78746 15.5867 8.3301 16.4258 8.49768C15.9553 8.56589 15.3766 8.57698 15.0774 8.91492Z" fill="#1d1d1d"/>
<path d="M60.2239 8.09615L60.2621 8.08636C61.1588 7.84355 61.1954 7.33615 61.9013 7.26184L61.9626 7.4615C61.4515 8.04495 61.1003 8.47788 60.4661 8.94307C60.519 8.36015 60.5777 8.57234 60.2239 8.09615Z" fill="#1d1d1d"/>
</svg>
