<svg width="369" height="82" viewBox="0 0 369 82" fill="none" xmlns="http://www.w3.org/2000/svg">
<path d="M350.466 64.2172V61.7845C352.247 61.7845 353.526 61.6728 354.306 61.449C355.141 61.2253 355.642 60.8059 355.809 60.1908C356.031 59.5197 356.143 58.5411 356.143 57.2549V32.2577C356.143 30.8038 355.976 29.8531 355.642 29.4057C355.308 28.9024 354.668 28.6508 353.721 28.6508H350.8V26.1343L360.985 24.4567H363.239V57.2549C363.239 58.597 363.351 59.6036 363.573 60.2747C363.796 60.8898 364.296 61.3092 365.076 61.5329C365.911 61.7007 367.219 61.7845 369 61.7845V64.2172H350.466ZM359.482 17.075C358.091 17.075 356.978 16.6276 356.143 15.7328C355.308 14.8381 354.89 13.7756 354.89 12.5453C354.89 11.2031 355.308 10.0847 356.143 9.18998C356.978 8.29517 358.091 7.84782 359.482 7.84782C360.428 7.84782 361.235 8.07154 361.903 8.5189C362.627 8.91032 363.156 9.46954 363.49 10.1966C363.88 10.8676 364.074 11.6506 364.074 12.5453C364.074 13.7756 363.629 14.8381 362.738 15.7328C361.903 16.6276 360.818 17.075 359.482 17.075Z" fill="#0C0C0C"/>
<path d="M328.22 64.2172V61.7845C329.946 61.7845 331.171 61.7007 331.894 61.5329C332.674 61.3651 333.175 60.9737 333.397 60.3586C333.619 59.7434 333.731 58.7648 333.731 57.4226V37.0391C333.731 35.3055 333.481 33.7677 332.98 32.4255C332.535 31.0834 331.783 30.0209 330.725 29.238C329.723 28.4551 328.36 28.0637 326.635 28.0637C325.02 28.0637 323.573 28.4271 322.294 29.1541C321.069 29.8252 319.956 30.7199 318.954 31.8384C318.007 32.9568 317.117 34.1871 316.283 35.5292V31.5867C317.896 29.2939 319.844 27.4765 322.127 26.1343C324.408 24.7362 327.108 24.0373 330.224 24.0373C333.786 24.0373 336.43 25.0159 338.156 26.9732C339.881 28.9304 340.744 31.9782 340.744 36.1163V57.2549C340.744 58.597 340.827 59.6036 340.994 60.2747C341.217 60.8898 341.746 61.3092 342.581 61.5329C343.416 61.7007 344.724 61.7845 346.504 61.7845V64.2172H328.22ZM280.717 64.2172V61.7845C282.554 61.7845 283.861 61.6728 284.64 61.449C285.42 61.2253 285.893 60.8059 286.06 60.1908C286.283 59.5197 286.394 58.5411 286.394 57.2549V32.2577C286.394 30.8038 286.227 29.8531 285.893 29.4057C285.559 28.9024 284.919 28.6508 283.972 28.6508H281.134V26.1343L290.986 24.4567H293.24V30.4962H293.491V57.4226C293.491 58.7648 293.602 59.7434 293.825 60.3586C294.047 60.9737 294.547 61.3651 295.327 61.5329C296.162 61.7007 297.386 61.7845 299.001 61.7845V64.2172H280.717ZM304.594 64.2172V61.7845C306.319 61.7845 307.544 61.7007 308.267 61.5329C309.047 61.3651 309.548 60.9737 309.77 60.3586C309.993 59.7434 310.104 58.7648 310.104 57.4226V37.0391C310.104 35.3055 309.882 33.7677 309.436 32.4255C308.991 31.0834 308.24 30.0209 307.182 29.238C306.124 28.4551 304.706 28.0637 302.924 28.0637C301.366 28.0637 299.946 28.3991 298.667 29.0702C297.442 29.7413 296.329 30.636 295.327 31.7545C294.38 32.817 293.491 33.9913 292.656 35.2776V31.419C293.88 29.8532 295.16 28.539 296.496 27.4765C297.887 26.358 299.418 25.5192 301.087 24.9599C302.757 24.3448 304.567 24.0373 306.514 24.0373C308.908 24.0373 310.884 24.4567 312.442 25.2955C314 26.1343 315.169 27.2807 315.949 28.7347C316.727 30.1887 317.117 31.8384 317.117 33.6838V57.2549C317.117 58.5411 317.228 59.5197 317.451 60.1908C317.673 60.8059 318.147 61.2253 318.87 61.449C319.65 61.6728 320.902 61.7845 322.627 61.7845V64.2172H304.594Z" fill="#0C0C0C"/>
<path d="M270.846 65.056C269.844 65.056 268.925 64.9162 268.09 64.6366C267.311 64.357 266.672 63.7418 266.171 62.7912C265.725 61.8405 265.503 60.3586 265.503 58.3453V35.5292C265.503 32.8449 264.946 30.7758 263.833 29.3219C262.719 27.812 260.744 27.057 257.905 27.057C256.513 27.057 255.234 27.2527 254.065 27.6442C252.952 27.9798 252.033 28.3992 251.31 28.9024C250.642 29.4057 250.308 29.8811 250.308 30.3285C250.308 30.7758 250.502 31.1393 250.892 31.419C251.337 31.6985 251.755 32.0621 252.145 32.5094C252.59 32.9568 252.813 33.6838 252.813 34.6904C252.813 35.8647 252.479 36.8154 251.811 37.5424C251.143 38.2135 250.196 38.549 248.972 38.549C247.692 38.549 246.662 38.1575 245.883 37.3746C245.159 36.5917 244.797 35.5013 244.797 34.1032C244.797 32.4255 245.326 30.8318 246.384 29.3219C247.497 27.812 249.195 26.5817 251.477 25.631C253.759 24.6245 256.653 24.1212 260.16 24.1212C264.167 24.1212 267.228 24.9599 269.343 26.6376C271.458 28.2593 272.516 31.3071 272.516 35.7808V55.6611C272.516 57.898 272.738 59.4078 273.183 60.1908C273.684 60.9737 274.463 61.3651 275.521 61.3651C276.022 61.3651 276.44 61.3092 276.774 61.1973C277.108 61.0856 277.469 60.9457 277.859 60.778L278.443 62.875C277.831 63.2665 276.913 63.7139 275.688 64.2172C274.519 64.7764 272.905 65.056 270.846 65.056ZM252.98 65.1398C250.085 65.1398 247.636 64.4688 245.632 63.1267C243.629 61.7286 242.627 59.6036 242.627 56.7516C242.627 54.0673 243.574 51.6067 245.465 49.3699C247.358 47.0771 250.141 45.1478 253.815 43.5819C257.543 41.9602 262.107 40.8138 267.506 40.1427V42.6593C261.662 43.7218 257.293 45.2316 254.399 47.1889C251.56 49.1461 250.141 51.6627 250.141 54.7384C250.141 56.6956 250.697 58.1776 251.811 59.1842C252.98 60.1348 254.594 60.6102 256.653 60.6102C258.156 60.6102 259.547 60.3306 260.828 59.7714C262.107 59.2122 263.276 58.5411 264.334 57.7581C265.447 56.9194 266.477 56.1085 267.422 55.3256V58.0098C265.976 59.352 264.501 60.5542 262.998 61.6168C261.55 62.6793 260.02 63.5461 258.406 64.2172C256.792 64.8323 254.984 65.1398 252.98 65.1398Z" fill="#0C0C0C"/>
<path d="M212.872 82C209.755 82 206.888 81.6365 204.273 80.9103C201.712 80.1832 199.653 79.0366 198.095 77.4705C196.592 75.9604 195.84 74.0037 195.84 71.5989C195.84 69.5298 196.536 67.7682 197.928 66.3142C199.319 64.8603 201.712 63.63 205.108 62.6234L210.534 63.2106C208.363 63.5461 206.693 64.1333 205.525 64.9721C204.356 65.8668 203.549 66.8455 203.104 67.9081C202.714 68.9706 202.519 69.9771 202.519 70.9278C202.519 73.5003 203.549 75.5418 205.609 77.051C207.668 78.5612 210.451 79.3162 213.957 79.3162C216.295 79.3162 218.354 78.9527 220.135 78.2256C221.972 77.5544 223.391 76.5477 224.393 75.2062C225.45 73.8639 225.979 72.214 225.979 70.2567C225.979 68.1317 225.2 66.5379 223.641 65.4754C222.084 64.4688 219.328 63.9656 215.377 63.9656H207.111C205.219 63.9656 203.549 63.63 202.102 62.9589C200.71 62.2878 199.626 61.4211 198.846 60.3586C198.067 59.2961 197.677 58.1497 197.677 56.9194C197.677 55.018 198.596 53.2285 200.432 51.5508C202.269 49.8732 204.969 48.3913 208.53 47.105L211.536 48.0278C211.202 48.0836 210.59 48.2794 209.699 48.6149C208.864 48.9505 207.974 49.3978 207.027 49.9571C206.081 50.5163 205.275 51.1594 204.607 51.8864C203.939 52.6133 203.605 53.4242 203.605 54.3189C203.605 55.1578 204.106 55.9687 205.108 56.7516C206.165 57.4786 208.169 57.842 211.119 57.842H217.213C222.501 57.842 226.341 58.7648 228.734 60.6102C231.128 62.3997 232.324 65.0281 232.324 68.4952C232.324 71.6828 231.434 74.2554 229.652 76.2121C227.872 78.2256 225.506 79.6798 222.557 80.5747C219.606 81.5246 216.379 82 212.872 82ZM213.206 50.2087C210.646 50.2087 208.141 49.7893 205.692 48.9505C203.299 48.1116 201.322 46.7695 199.765 44.9241C198.206 43.0227 197.427 40.4783 197.427 37.2907C197.427 34.8861 197.872 32.8449 198.763 31.1673C199.709 29.4896 200.961 28.1196 202.519 27.057C204.078 25.9945 205.804 25.2396 207.695 24.7922C209.588 24.2889 211.481 24.0373 213.373 24.0373C216.1 24.0373 218.632 24.4846 220.97 25.3793C223.363 26.2741 225.283 27.7001 226.731 29.6574C228.234 31.5588 228.984 34.0752 228.984 37.2069C228.984 40.3944 228.206 42.9388 226.647 44.8402C225.144 46.7416 223.168 48.1116 220.72 48.9505C218.326 49.7893 215.822 50.2087 213.206 50.2087ZM213.039 47.5244C216.267 47.5244 218.493 46.6017 219.718 44.7563C220.998 42.855 221.638 40.1987 221.638 36.7874C221.638 34.8302 221.388 33.0966 220.887 31.5867C220.386 30.0768 219.551 28.9024 218.382 28.0637C217.213 27.2248 215.571 26.8054 213.456 26.8054C210.34 26.8054 208.169 27.756 206.944 29.6574C205.72 31.5588 205.108 34.1312 205.108 37.3746C205.108 40.2826 205.664 42.7152 206.777 44.6724C207.89 46.5738 209.978 47.5244 213.039 47.5244ZM234.912 33.3482C233.911 33.3482 233.104 33.0687 232.491 32.5094C231.879 31.8943 231.573 31.2232 231.573 30.4962C231.573 29.937 231.629 29.5176 231.74 29.238C231.851 28.9584 231.907 28.6788 231.907 28.3991C231.907 28.0637 231.768 27.756 231.489 27.4765C231.211 27.1968 230.794 27.057 230.237 27.057C229.736 27.057 229.096 27.3646 228.317 27.9798C227.594 28.539 226.814 29.5456 225.979 30.9996L224.309 29.4057C225.256 27.7281 226.397 26.414 227.733 25.4632C229.124 24.5126 230.627 24.0373 232.241 24.0373C234.078 24.0373 235.552 24.5406 236.666 25.5471C237.779 26.4978 238.336 27.784 238.336 29.4057C238.336 30.5801 238.029 31.5308 237.417 32.2577C236.86 32.9848 236.025 33.3482 234.912 33.3482Z" fill="#0C0C0C"/>
<path d="M172.723 64.2172V61.7845C174.504 61.7845 175.784 61.6728 176.563 61.449C177.398 61.2253 177.899 60.8059 178.066 60.1908C178.289 59.5197 178.4 58.5411 178.4 57.2549V32.2577C178.4 30.8038 178.233 29.8531 177.899 29.4057C177.565 28.9024 176.925 28.6508 175.979 28.6508H173.057V26.1343L183.242 24.4567H185.497V57.2549C185.497 58.597 185.608 59.6036 185.831 60.2747C186.053 60.8898 186.554 61.3092 187.333 61.5329C188.168 61.7007 189.476 61.7845 191.258 61.7845V64.2172H172.723ZM181.739 17.075C180.348 17.075 179.235 16.6276 178.4 15.7328C177.565 14.8381 177.148 13.7756 177.148 12.5453C177.148 11.2031 177.565 10.0847 178.4 9.18998C179.235 8.29517 180.348 7.84782 181.739 7.84782C182.686 7.84782 183.493 8.07154 184.161 8.5189C184.885 8.91032 185.413 9.46954 185.747 10.1966C186.136 10.8676 186.331 11.6506 186.331 12.5453C186.331 13.7756 185.886 14.8381 184.996 15.7328C184.161 16.6276 183.075 17.075 181.739 17.075Z" fill="#0C0C0C"/>
<path d="M141.538 64.2172V61.7845C143.375 61.7845 144.682 61.6728 145.462 61.449C146.241 61.2253 146.714 60.8059 146.881 60.1908C147.104 59.5197 147.215 58.5411 147.215 57.2549V32.2577C147.215 30.8038 147.048 29.8531 146.714 29.4057C146.38 28.9024 145.74 28.6508 144.794 28.6508H141.956V26.1343L151.807 24.4567H154.061V32.3416H154.312V57.2549C154.312 58.597 154.423 59.6036 154.646 60.2747C154.924 60.8898 155.508 61.3092 156.398 61.5329C157.289 61.7007 158.709 61.7845 160.657 61.7845V64.2172H141.538ZM153.978 40.5622V32.8449C154.367 32.118 154.841 31.2512 155.396 30.2446C155.953 29.238 156.649 28.2593 157.484 27.3087C158.319 26.358 159.321 25.5751 160.49 24.9599C161.658 24.2889 162.994 23.9534 164.497 23.9534C166.501 23.9534 168.031 24.5406 169.089 25.7149C170.202 26.8893 170.759 28.511 170.759 30.5801C170.759 32.146 170.369 33.4321 169.59 34.4387C168.866 35.4453 167.669 35.9486 166 35.9486C164.553 35.9486 163.467 35.5572 162.744 34.7743C162.02 33.9913 161.658 33.0687 161.658 32.0061C161.658 31.1673 161.825 30.4962 162.159 29.9929C162.493 29.4896 162.827 29.0702 163.161 28.7347C163.495 28.3991 163.662 28.0637 163.662 27.7281C163.662 27.5044 163.579 27.3366 163.412 27.2248C163.245 27.057 162.966 26.9732 162.577 26.9732C161.742 26.9732 160.852 27.3366 159.905 28.0637C158.959 28.7347 158.041 29.7133 157.15 30.9996C156.315 32.2298 155.619 33.6558 155.063 35.2776C154.562 36.8993 154.312 38.6329 154.312 40.4783L153.978 40.5622Z" fill="#0C0C0C"/>
<path d="M113.179 65.2237C107.334 65.2237 102.548 63.9934 98.8192 61.5329C95.0895 59.0164 92.3349 55.6052 90.5535 51.2992C88.7722 46.9373 87.8815 42.0441 87.8815 36.6197C87.8815 32.6493 88.3547 28.9304 89.301 25.4632C90.303 21.9401 91.806 18.8645 93.8092 16.2362C95.8688 13.6078 98.4852 11.5667 101.657 10.1127C104.885 8.60279 108.726 7.84782 113.179 7.84782C117.631 7.84782 121.444 8.60279 124.616 10.1127C127.788 11.5667 130.377 13.6078 132.381 16.2362C134.44 18.8645 135.943 21.9401 136.889 25.4632C137.891 28.9304 138.392 32.6493 138.392 36.6197C138.392 42.0441 137.501 46.9373 135.72 51.2992C133.994 55.6052 131.268 59.0164 127.538 61.5329C123.809 63.9934 119.023 65.2237 113.179 65.2237ZM113.179 62.3717C115.795 62.3717 118.048 61.8964 119.941 60.9458C121.833 59.9392 123.392 58.597 124.616 56.9194C125.841 55.2417 126.815 53.3124 127.538 51.1314C128.262 48.8945 128.763 46.5458 129.041 44.0852C129.319 41.6247 129.458 39.1362 129.458 36.6197C129.458 33.2085 129.208 29.9649 128.707 26.8893C128.262 23.7576 127.455 20.9895 126.286 18.5848C125.117 16.1243 123.475 14.195 121.361 12.797C119.245 11.3989 116.518 10.6998 113.179 10.6998C109.839 10.6998 107.084 11.3989 104.913 12.797C102.798 14.195 101.156 16.1243 99.9873 18.5848C98.8192 20.9895 97.9842 23.7576 97.4832 26.8893C97.0378 29.9649 96.8152 33.2085 96.8152 36.6197C96.8152 39.1362 96.9543 41.6247 97.2327 44.0852C97.5667 46.5458 98.0677 48.8945 98.7357 51.1314C99.4584 53.3124 100.433 55.2417 101.657 56.9194C102.938 58.597 104.524 59.9392 106.416 60.9458C108.309 61.8964 110.562 62.3717 113.179 62.3717Z" fill="#0C0C0C"/>
<path d="M37.6759 40.2022L73.4369 12.0598L36.8401 13.5019L37.6759 40.2022Z" fill="#FFB6EA"/>
<path d="M8.19425 32.762L23.6785 20.0342L13.5528 0.369144L8.19425 32.762Z" fill="#FFB6EA"/>
<path d="M11.68 0L0.0345672 6.18811L10.2467 8.51899L11.68 0Z" fill="#FFB6EA"/>
<path d="M9.62731 34.101L36.3792 59.5202L34.9145 13.4635L9.62731 34.101Z" fill="#FFB6EA"/>
<path d="M37.9177 47.3405L38.3092 61.4772L52.281 74.8012L37.9177 47.3405Z" fill="#FFB6EA"/>
<path d="M16.0236 5.24685L15.4367 26.8154L23.6649 20.0232L16.0236 5.24685Z" fill="#FD7BCD"/>
<path d="M35.2076 23.1441L34.9049 13.4655L9.63387 34.1451L15.0696 39.1295L35.2076 23.1441Z" fill="#FD7BCD"/>
<path d="M16.3775 28.5702L36.0688 50.2896L36.3804 59.5312L9.63387 34.1093L16.3775 28.5702Z" fill="#FB44B8"/>
<path d="M6.22104 2.89614L5.07682 7.33551L0 6.18523L6.22104 2.89614Z" fill="#FD7BCD"/>
<path d="M10.0757 21.4123L15.4514 26.7901L8.18204 32.7878L10.0757 21.4123Z" fill="#FFBFE7"/>
<path d="M37.2968 27.8555L56.2819 12.7214L36.8275 13.5038L37.2968 27.8555Z" fill="#FB44B8"/>
<path d="M41.2031 64.2053L48.2559 67.0719L52.2521 74.766L41.2031 64.2053Z" fill="#FFBFE7"/>
</svg>
