<svg width="562" height="195" viewBox="0 0 561.672 194.098" fill="none" xmlns="http://www.w3.org/2000/svg">
<g id="Vector">
<path d="M236.006 50.7939C237.094 50.6179 241.453 50.7208 242.828 50.6879C252.72 50.516 262.498 51.1457 272.261 52.6972C284.162 54.589 290.474 62.0344 292.118 73.6707C293.712 84.9565 293.764 95.5662 293.764 106.87L293.718 150.701C293.712 159.052 293.482 167.458 294.124 175.792C294.925 186.225 299.102 187.965 308.552 189.461L308.821 189.892L308.596 190.609C306.456 191.094 290.836 190.813 287.831 190.513C277.118 189.444 271.264 185.915 264.635 177.837C259.688 186.98 255.411 192.918 244.26 192.876C220.407 192.785 196.373 195.278 196.362 163.302C195.695 152.011 195.908 140.724 196.059 129.429C196.17 121.127 196.155 113.752 202.487 107.403C205.142 104.782 208.448 102.919 212.063 102.006C219.019 100.214 234.74 100.708 242.143 100.835C248.578 100.912 255.013 100.932 261.448 100.897C261.265 91.3429 261.56 81.39 261.369 71.6682C261.034 54.6854 251.866 49.3951 236.071 54.0823C226.902 56.8029 228.33 68.8251 228.57 76.276C228.807 83.5995 227.934 85.9477 235.305 89.2067C231.164 90.3465 224.82 91.5239 220.475 92.1616C213.981 92.8867 195.843 100.363 195.619 88.4676C195.456 79.8116 194.271 67.0822 200.188 60.3261C207.562 51.906 225.502 51.6401 236.006 50.7939ZM252.178 189.522C257.016 186.92 260.922 182.845 262.392 177.494C264.233 170.796 261.575 162.791 261.482 155.86C261.29 141.537 261.526 127.324 261.335 113.016C261.304 111.201 260.911 109.146 260.073 107.545C259.401 106.263 258.441 105.44 257.004 105.175C252.697 104.381 242.391 103.816 238.327 104.343C232.946 104.844 228.516 105.211 228.328 111.784C228.201 116.193 228.212 120.557 228.211 124.966L228.224 168.234C228.24 183.917 228.085 192.985 247.317 190.842C248.867 190.67 250.784 190.225 252.178 189.522Z" fill="var(--fill-0, black)"/>
<path d="M57.6504 4.95998C58.2154 4.91076 58.7813 4.87239 59.3477 4.84487C64.7311 4.59082 70.1568 4.90334 75.5397 5.03962C86.5051 5.31721 99.5312 4.50151 108.194 12.5C113.285 17.2011 115.586 24.0478 115.873 30.8421C116.185 38.2375 114.534 46.4083 109.373 51.9878C105.204 56.4931 99.3957 58.4011 93.3712 58.6258C89.8068 58.7584 72.4117 58.3657 70.538 56.2682C70.1585 55.8436 69.9403 55.0856 69.9365 54.5253C69.917 51.5961 74.9854 52.3712 77.5142 49.787C81.3384 45.8788 80.5667 36.7003 80.5374 31.4488C80.5025 25.2977 80.7838 17.0287 76.0416 12.3843C72.173 8.59566 66.8315 8.41164 61.7482 8.47679C58.1024 8.52351 54.1733 9.88573 51.5941 12.5547C47.3113 16.9862 47.1181 25.4564 46.3912 31.2505C46.0825 33.7111 45.5238 36.3672 45.574 38.8426C45.6978 44.9425 53.2148 43.3383 56.6543 46.672C58.756 48.7088 58.9004 51.8241 58.9166 54.5777C58.9775 64.9155 50.452 61.684 46.892 65.4324C45.9283 66.4472 45.6539 67.8372 45.6926 69.1964C45.8218 73.7438 47.7468 78.8278 50.9317 82.0799C54.038 85.2518 58.3288 87.1323 62.3305 88.8972C65.8307 90.441 69.3676 92.0644 72.9888 93.2948C82.5436 96.5423 104.096 101.683 110.79 108.123C115.366 112.525 115.657 117.956 115.777 123.915C116.018 135.853 117.104 161.445 113.918 172.275C112.818 176.017 110.999 179.25 108.281 182.065C100.312 190.316 89.7467 190.963 79.0531 191.32C75.116 191.488 71.1779 191.622 67.239 191.721C60.3899 191.838 53.6912 191.516 46.8665 191.324C35.9777 191.018 27.219 190.055 18.9827 182.085C16.1121 178.909 14.0794 175.535 12.8448 171.412C8.60662 157.26 15.1753 123.486 7.51409 113.94C5.57966 111.53 3.01334 110.428 0 110.113C5.1833 106.225 11.2336 104.123 17.691 103.822C24.5196 103.503 32.3579 105.116 37.4953 109.866C40.9567 113.067 43.444 117.858 44.675 122.37C46.6928 129.766 46.5221 137.986 46.6793 145.61C46.8632 154.533 46.8629 163.515 47.2405 172.427C47.4299 176.893 48.2397 181.803 51.7132 184.959C55.1483 188.079 61.436 188.272 65.8617 188.023C69.7743 187.803 73.3129 186.583 75.9569 183.586C78.1173 181.138 79.2726 177.994 79.8766 174.824C80.6521 170.755 80.6309 166.577 80.7978 162.454C81.16 153.501 81.1932 144.581 81.1938 135.623C81.1943 127.56 81.6378 119.244 81.1134 111.207C80.9668 108.964 80.6823 106.908 79.3352 105.05C73.564 97.0913 44.4053 87.7983 34.7366 84.1312C29.1951 82.0296 22.8306 80.059 18.3199 76.0717C14.6952 72.8674 12.0522 68.0517 11.774 63.172C11.6838 61.5911 11.9111 59.9048 13.0329 58.6991C16.7537 54.6999 34.5209 59.5642 40.274 59.3827C41.8362 59.3335 43.4994 58.8768 44.5834 57.6865C45.7016 56.458 46.026 54.5755 45.9247 52.9581C45.8355 51.5371 45.3822 50.2144 44.2692 49.2704C40.7342 46.2726 25.8956 50.0427 20.9751 50.3893C18.6925 50.55 15.5579 50.4951 13.7478 48.8557C11.8644 47.1499 11.4528 44.1485 11.3369 41.7459C10.8935 32.5504 11.6265 22.5195 18.1628 15.3873C20.5625 12.7687 23.5321 10.8119 26.7174 9.28093C36.9313 4.37182 46.6925 5.41707 57.6504 4.95998Z" fill="var(--fill-0, black)"/>
<path d="M360.688 52.1605C371.887 51.7695 394.381 51.8675 404.57 56.6763C412.882 60.9507 416.263 71.2802 416.935 79.9376C417.69 89.673 415.297 91.1921 424.281 96.0523C421.188 96.918 400.27 100.687 397.323 100.605C395.056 100.537 392.863 99.7919 391.022 98.4654C380.131 90.7027 389.485 67.5985 381.629 57.9235C377.93 52.9724 359.695 53.7942 355.886 57.6164C351.358 62.1627 353.147 80.9552 352.324 87.8686C351.88 91.5997 352.173 101.672 353.002 104.558C355.771 114.197 366.141 117.08 374.903 118.086C385.934 120.536 403.146 120.116 411.639 128.015C417.607 133.826 417.421 145.293 416.913 153.086C416.235 163.47 417.262 178.85 409.369 186.388C407.086 188.527 404.35 190.124 401.367 191.061C391.113 194.372 369.445 194.229 358.537 193.988C351.465 193.713 344.41 192.891 337.478 191.393C323.84 188.673 320.605 174.811 319.908 162.867C319.238 151.397 316.785 156.104 307.902 153.968C312.883 148.544 319.932 144.568 325.972 140.453C328.826 138.51 331.677 136.189 334.745 134.618C336.106 133.921 337.607 133.422 339.139 133.318C342.16 133.112 345.593 134.312 347.854 136.324C349.624 137.898 350.626 139.938 351.136 142.225C352.267 147.268 351.679 154.801 351.6 160.136C351.515 165.65 351.548 171.292 351.907 176.796C352.173 180.891 352.884 185.975 356.166 188.82C360.299 192.402 367.845 192.13 373.023 191.721C376.297 191.462 379.664 190.582 381.862 187.967C383.204 186.372 383.904 184.296 384.23 182.262C385.287 175.636 384.689 166.726 384.68 159.857C384.675 153.044 385.089 145.976 384.472 139.195C384.019 134.226 382.084 130.647 378.248 127.456C363.83 115.467 338.395 122.22 326.529 112.207C322.726 108.998 320.896 104.51 320.498 99.6222C319.828 91.3841 320.113 76.2266 322.462 68.5213C323.225 66.0174 324.389 63.7081 326.093 61.7112C333.513 53.015 350.165 53.0177 360.688 52.1605Z" fill="var(--fill-0, black)"/>
<path d="M171.587 0.175184L171.861 0.190131C172.268 0.766328 171.808 37.9445 171.801 42.5748L171.799 160.978C171.793 167.966 171.148 174.25 172.736 181.287C174.528 189.228 185.588 187.67 186.499 190.489C172.615 190.512 158.625 191.322 144.741 190.639C143.943 190.599 142.76 190.003 142.037 189.626C141.574 189.06 140.906 188.036 140.464 187.406C139.783 174.772 140.26 157.583 140.261 144.633L140.266 44.0035C140.263 38.1022 140.509 29.6463 139.242 23.9829C137.884 17.9154 130.189 14.0639 125.029 11.1421C124.661 10.2753 124.741 10.6006 124.87 9.58947C125.545 9.3876 129.689 9.02702 130.823 8.89703C134.376 8.47311 137.92 7.97649 141.452 7.40747C152.299 5.62416 161.091 3.2785 171.587 0.175184Z" fill="var(--fill-0, black)"/>
<path d="M438.246 187.817C437.897 185.451 438.015 181.114 438.015 178.523C438.029 173.708 438.007 168.893 437.955 164.079L437.914 49.0447C437.928 40.1856 438.594 30.6617 436.122 22.0261C434.662 16.926 422.001 12.014 422.33 9.69016C424.437 9.21361 426.526 9.22512 428.661 8.95893C431.677 8.58272 434.717 8.14477 437.722 7.68481C448.558 6.00501 459.236 3.43472 469.647 0L469.483 69.7276C469.455 77.4553 469.197 84.8415 469.307 92.6761C475.805 83.2263 482.199 76.017 492.574 70.6611C502.239 65.7655 514.506 64.4802 524.854 67.8457C537.482 71.9536 546.225 82.5789 547.158 95.929C547.71 103.808 547.438 111.858 547.438 119.764L547.441 163.534C547.441 169.344 546.793 178.023 549.246 183.12C551.565 187.944 557.065 188.169 561.672 189.658V189.946C560.802 191.264 555.61 190.841 553.911 190.837L539.938 190.768C534.346 190.755 528.761 190.948 523.172 190.819C516.668 190.67 517.672 184.47 517.681 179.845C517.686 176.458 517.716 173.04 517.714 169.641L517.7 127.582C517.703 125.29 517.689 123.089 517.719 120.704C517.889 109.052 518.847 92.9609 508.274 85.2004C504.114 82.1491 497.637 81.8192 492.747 82.7717C482.531 84.7629 474.932 92.6313 469.351 100.923C468.843 113.93 469.266 129.503 469.26 142.685L469.255 163.522C469.258 171.008 467.595 184.084 475.909 187.455C477.797 188.219 483.406 188.687 484.026 190.344C482.649 191.299 450.306 190.475 446.155 190.913C442.966 191.249 440.326 190.43 438.246 187.817Z" fill="var(--fill-0, black)"/>
</g>
</svg>
